<svg version="1.1" baseProfile="full" shape-rendering="crispEdges" width="820" height="820" xmlns="http://www.w3.org/2000/svg" xmlns:xlink="http://www.w3.org/1999/xlink"><rect x="0" y="0" width="820" height="820" fill="#FFFFFF" />
<rect x="80" y="80" width="140" height="20" fill="#000000" />
<rect x="240" y="80" width="20" height="20" fill="#000000" />
<rect x="280" y="80" width="20" height="20" fill="#000000" />
<rect x="420" y="80" width="100" height="20" fill="#000000" />
<rect x="540" y="80" width="20" height="20" fill="#000000" />
<rect x="600" y="80" width="140" height="20" fill="#000000" />
<rect x="80" y="100" width="20" height="100" fill="#000000" />
<rect x="200" y="100" width="20" height="100" fill="#000000" />
<rect x="420" y="100" width="20" height="20" fill="#000000" />
<rect x="480" y="100" width="60" height="20" fill="#000000" />
<rect x="600" y="100" width="20" height="100" fill="#000000" />
<rect x="720" y="100" width="20" height="100" fill="#000000" />
<rect x="120" y="120" width="60" height="60" fill="#000000" />
<rect x="280" y="120" width="40" height="20" fill="#000000" />
<rect x="360" y="120" width="40" height="20" fill="#000000" />
<rect x="420" y="120" width="60" height="20" fill="#000000" />
<rect x="500" y="120" width="40" height="20" fill="#000000" />
<rect x="640" y="120" width="60" height="60" fill="#000000" />
<rect x="340" y="140" width="60" height="20" fill="#000000" />
<rect x="480" y="140" width="20" height="20" fill="#000000" />
<rect x="520" y="140" width="20" height="20" fill="#000000" />
<rect x="240" y="160" width="100" height="20" fill="#000000" />
<rect x="400" y="160" width="60" height="20" fill="#000000" />
<rect x="500" y="160" width="20" height="20" fill="#000000" />
<rect x="540" y="160" width="40" height="20" fill="#000000" />
<rect x="240" y="180" width="40" height="20" fill="#000000" />
<rect x="300" y="180" width="60" height="20" fill="#000000" />
<rect x="440" y="180" width="20" height="60" fill="#000000" />
<rect x="480" y="180" width="20" height="40" fill="#000000" />
<rect x="80" y="200" width="140" height="20" fill="#000000" />
<rect x="240" y="200" width="20" height="20" fill="#000000" />
<rect x="280" y="200" width="20" height="20" fill="#000000" />
<rect x="320" y="200" width="20" height="20" fill="#000000" />
<rect x="360" y="200" width="20" height="20" fill="#000000" />
<rect x="400" y="200" width="20" height="20" fill="#000000" />
<rect x="520" y="200" width="20" height="20" fill="#000000" />
<rect x="560" y="200" width="20" height="40" fill="#000000" />
<rect x="600" y="200" width="140" height="20" fill="#000000" />
<rect x="300" y="220" width="40" height="20" fill="#000000" />
<rect x="360" y="220" width="40" height="20" fill="#000000" />
<rect x="500" y="220" width="20" height="20" fill="#000000" />
<rect x="100" y="240" width="140" height="20" fill="#000000" />
<rect x="320" y="240" width="20" height="20" fill="#000000" />
<rect x="380" y="240" width="20" height="20" fill="#000000" />
<rect x="420" y="240" width="20" height="20" fill="#000000" />
<rect x="480" y="240" width="20" height="20" fill="#000000" />
<rect x="520" y="240" width="40" height="20" fill="#000000" />
<rect x="620" y="240" width="40" height="20" fill="#000000" />
<rect x="720" y="240" width="20" height="20" fill="#000000" />
<rect x="100" y="260" width="20" height="20" fill="#000000" />
<rect x="220" y="260" width="20" height="20" fill="#000000" />
<rect x="260" y="260" width="20" height="20" fill="#000000" />
<rect x="300" y="260" width="40" height="20" fill="#000000" />
<rect x="360" y="260" width="20" height="20" fill="#000000" />
<rect x="440" y="260" width="60" height="20" fill="#000000" />
<rect x="540" y="260" width="20" height="20" fill="#000000" />
<rect x="600" y="260" width="40" height="20" fill="#000000" />
<rect x="660" y="260" width="80" height="20" fill="#000000" />
<rect x="80" y="280" width="80" height="20" fill="#000000" />
<rect x="200" y="280" width="20" height="20" fill="#000000" />
<rect x="240" y="280" width="100" height="20" fill="#000000" />
<rect x="380" y="280" width="40" height="20" fill="#000000" />
<rect x="440" y="280" width="20" height="20" fill="#000000" />
<rect x="480" y="280" width="20" height="20" fill="#000000" />
<rect x="520" y="280" width="20" height="20" fill="#000000" />
<rect x="560" y="280" width="40" height="20" fill="#000000" />
<rect x="640" y="280" width="20" height="20" fill="#000000" />
<rect x="680" y="280" width="40" height="20" fill="#000000" />
<rect x="100" y="300" width="100" height="20" fill="#000000" />
<rect x="260" y="300" width="20" height="20" fill="#000000" />
<rect x="320" y="300" width="40" height="20" fill="#000000" />
<rect x="400" y="300" width="20" height="60" fill="#000000" />
<rect x="460" y="300" width="80" height="20" fill="#000000" />
<rect x="640" y="300" width="60" height="20" fill="#000000" />
<rect x="80" y="320" width="20" height="40" fill="#000000" />
<rect x="120" y="320" width="20" height="20" fill="#000000" />
<rect x="160" y="320" width="20" height="20" fill="#000000" />
<rect x="200" y="320" width="20" height="20" fill="#000000" />
<rect x="240" y="320" width="20" height="20" fill="#000000" />
<rect x="280" y="320" width="60" height="20" fill="#000000" />
<rect x="440" y="320" width="40" height="20" fill="#000000" />
<rect x="500" y="320" width="20" height="20" fill="#000000" />
<rect x="580" y="320" width="20" height="20" fill="#000000" />
<rect x="640" y="320" width="40" height="20" fill="#000000" />
<rect x="700" y="320" width="20" height="20" fill="#000000" />
<rect x="140" y="340" width="20" height="20" fill="#000000" />
<rect x="180" y="340" width="20" height="20" fill="#000000" />
<rect x="220" y="340" width="20" height="20" fill="#000000" />
<rect x="280" y="340" width="20" height="20" fill="#000000" />
<rect x="320" y="340" width="20" height="20" fill="#000000" />
<rect x="360" y="340" width="20" height="20" fill="#000000" />
<rect x="480" y="340" width="40" height="20" fill="#000000" />
<rect x="540" y="340" width="40" height="20" fill="#000000" />
<rect x="680" y="340" width="60" height="20" fill="#000000" />
<rect x="80" y="360" width="60" height="20" fill="#000000" />
<rect x="180" y="360" width="60" height="20" fill="#000000" />
<rect x="260" y="360" width="40" height="20" fill="#000000" />
<rect x="380" y="360" width="20" height="20" fill="#000000" />
<rect x="420" y="360" width="20" height="20" fill="#000000" />
<rect x="460" y="360" width="20" height="20" fill="#000000" />
<rect x="500" y="360" width="40" height="20" fill="#000000" />
<rect x="560" y="360" width="80" height="20" fill="#000000" />
<rect x="660" y="360" width="20" height="20" fill="#000000" />
<rect x="700" y="360" width="20" height="20" fill="#000000" />
<rect x="80" y="380" width="20" height="20" fill="#000000" />
<rect x="220" y="380" width="20" height="20" fill="#000000" />
<rect x="280" y="380" width="60" height="20" fill="#000000" />
<rect x="360" y="380" width="20" height="20" fill="#000000" />
<rect x="420" y="380" width="140" height="20" fill="#000000" />
<rect x="580" y="380" width="40" height="20" fill="#000000" />
<rect x="680" y="380" width="20" height="20" fill="#000000" />
<rect x="80" y="400" width="80" height="20" fill="#000000" />
<rect x="180" y="400" width="40" height="20" fill="#000000" />
<rect x="260" y="400" width="40" height="40" fill="#000000" />
<rect x="320" y="400" width="20" height="20" fill="#000000" />
<rect x="360" y="400" width="80" height="20" fill="#000000" />
<rect x="460" y="400" width="20" height="20" fill="#000000" />
<rect x="540" y="400" width="20" height="40" fill="#000000" />
<rect x="580" y="400" width="20" height="20" fill="#000000" />
<rect x="620" y="400" width="40" height="20" fill="#000000" />
<rect x="720" y="400" width="20" height="20" fill="#000000" />
<rect x="80" y="420" width="20" height="40" fill="#000000" />
<rect x="360" y="420" width="60" height="20" fill="#000000" />
<rect x="440" y="420" width="40" height="20" fill="#000000" />
<rect x="580" y="420" width="60" height="20" fill="#000000" />
<rect x="660" y="420" width="80" height="20" fill="#000000" />
<rect x="140" y="440" width="20" height="20" fill="#000000" />
<rect x="200" y="440" width="40" height="20" fill="#000000" />
<rect x="260" y="440" width="20" height="20" fill="#000000" />
<rect x="340" y="440" width="40" height="40" fill="#000000" />
<rect x="420" y="440" width="20" height="40" fill="#000000" />
<rect x="480" y="440" width="20" height="40" fill="#000000" />
<rect x="520" y="440" width="20" height="20" fill="#000000" />
<rect x="580" y="440" width="80" height="20" fill="#000000" />
<rect x="680" y="440" width="40" height="20" fill="#000000" />
<rect x="100" y="460" width="80" height="20" fill="#000000" />
<rect x="260" y="460" width="60" height="20" fill="#000000" />
<rect x="580" y="460" width="20" height="20" fill="#000000" />
<rect x="620" y="460" width="80" height="20" fill="#000000" />
<rect x="720" y="460" width="20" height="20" fill="#000000" />
<rect x="100" y="480" width="20" height="20" fill="#000000" />
<rect x="200" y="480" width="20" height="20" fill="#000000" />
<rect x="320" y="480" width="20" height="40" fill="#000000" />
<rect x="360" y="480" width="20" height="20" fill="#000000" />
<rect x="400" y="480" width="40" height="20" fill="#000000" />
<rect x="460" y="480" width="80" height="20" fill="#000000" />
<rect x="560" y="480" width="40" height="20" fill="#000000" />
<rect x="620" y="480" width="20" height="20" fill="#000000" />
<rect x="660" y="480" width="20" height="40" fill="#000000" />
<rect x="80" y="500" width="20" height="80" fill="#000000" />
<rect x="120" y="500" width="40" height="20" fill="#000000" />
<rect x="180" y="500" width="20" height="20" fill="#000000" />
<rect x="220" y="500" width="60" height="20" fill="#000000" />
<rect x="380" y="500" width="20" height="20" fill="#000000" />
<rect x="420" y="500" width="20" height="20" fill="#000000" />
<rect x="600" y="500" width="20" height="40" fill="#000000" />
<rect x="720" y="500" width="20" height="20" fill="#000000" />
<rect x="160" y="520" width="20" height="20" fill="#000000" />
<rect x="200" y="520" width="40" height="20" fill="#000000" />
<rect x="260" y="520" width="40" height="20" fill="#000000" />
<rect x="320" y="520" width="40" height="20" fill="#000000" />
<rect x="400" y="520" width="20" height="20" fill="#000000" />
<rect x="440" y="520" width="20" height="20" fill="#000000" />
<rect x="480" y="520" width="20" height="20" fill="#000000" />
<rect x="520" y="520" width="20" height="20" fill="#000000" />
<rect x="640" y="520" width="40" height="20" fill="#000000" />
<rect x="700" y="520" width="20" height="20" fill="#000000" />
<rect x="120" y="540" width="80" height="20" fill="#000000" />
<rect x="220" y="540" width="20" height="20" fill="#000000" />
<rect x="300" y="540" width="20" height="20" fill="#000000" />
<rect x="340" y="540" width="40" height="20" fill="#000000" />
<rect x="500" y="540" width="20" height="20" fill="#000000" />
<rect x="540" y="540" width="20" height="20" fill="#000000" />
<rect x="580" y="540" width="20" height="20" fill="#000000" />
<rect x="660" y="540" width="40" height="20" fill="#000000" />
<rect x="720" y="540" width="20" height="20" fill="#000000" />
<rect x="140" y="560" width="80" height="20" fill="#000000" />
<rect x="240" y="560" width="40" height="40" fill="#000000" />
<rect x="320" y="560" width="60" height="20" fill="#000000" />
<rect x="400" y="560" width="60" height="20" fill="#000000" />
<rect x="520" y="560" width="160" height="20" fill="#000000" />
<rect x="700" y="560" width="20" height="20" fill="#000000" />
<rect x="320" y="580" width="20" height="20" fill="#000000" />
<rect x="360" y="580" width="20" height="20" fill="#000000" />
<rect x="400" y="580" width="20" height="20" fill="#000000" />
<rect x="460" y="580" width="60" height="20" fill="#000000" />
<rect x="540" y="580" width="40" height="40" fill="#000000" />
<rect x="640" y="580" width="20" height="40" fill="#000000" />
<rect x="680" y="580" width="60" height="20" fill="#000000" />
<rect x="80" y="600" width="140" height="20" fill="#000000" />
<rect x="240" y="600" width="20" height="80" fill="#000000" />
<rect x="300" y="600" width="40" height="20" fill="#000000" />
<rect x="380" y="600" width="20" height="20" fill="#000000" />
<rect x="420" y="600" width="20" height="20" fill="#000000" />
<rect x="480" y="600" width="40" height="20" fill="#000000" />
<rect x="600" y="600" width="20" height="20" fill="#000000" />
<rect x="680" y="600" width="40" height="20" fill="#000000" />
<rect x="80" y="620" width="20" height="100" fill="#000000" />
<rect x="200" y="620" width="20" height="100" fill="#000000" />
<rect x="280" y="620" width="20" height="20" fill="#000000" />
<rect x="340" y="620" width="80" height="20" fill="#000000" />
<rect x="460" y="620" width="120" height="20" fill="#000000" />
<rect x="640" y="620" width="100" height="20" fill="#000000" />
<rect x="120" y="640" width="60" height="60" fill="#000000" />
<rect x="300" y="640" width="20" height="20" fill="#000000" />
<rect x="400" y="640" width="20" height="20" fill="#000000" />
<rect x="460" y="640" width="20" height="20" fill="#000000" />
<rect x="500" y="640" width="20" height="20" fill="#000000" />
<rect x="560" y="640" width="120" height="20" fill="#000000" />
<rect x="700" y="640" width="40" height="20" fill="#000000" />
<rect x="320" y="660" width="20" height="20" fill="#000000" />
<rect x="360" y="660" width="40" height="20" fill="#000000" />
<rect x="480" y="660" width="80" height="20" fill="#000000" />
<rect x="580" y="660" width="20" height="20" fill="#000000" />
<rect x="640" y="660" width="20" height="20" fill="#000000" />
<rect x="680" y="660" width="20" height="20" fill="#000000" />
<rect x="720" y="660" width="20" height="20" fill="#000000" />
<rect x="240" y="680" width="60" height="20" fill="#000000" />
<rect x="340" y="680" width="100" height="20" fill="#000000" />
<rect x="460" y="680" width="20" height="20" fill="#000000" />
<rect x="540" y="680" width="20" height="20" fill="#000000" />
<rect x="600" y="680" width="40" height="20" fill="#000000" />
<rect x="240" y="700" width="40" height="20" fill="#000000" />
<rect x="300" y="700" width="60" height="20" fill="#000000" />
<rect x="420" y="700" width="20" height="40" fill="#000000" />
<rect x="460" y="700" width="80" height="20" fill="#000000" />
<rect x="600" y="700" width="20" height="20" fill="#000000" />
<rect x="640" y="700" width="20" height="20" fill="#000000" />
<rect x="680" y="700" width="20" height="20" fill="#000000" />
<rect x="80" y="720" width="140" height="20" fill="#000000" />
<rect x="280" y="720" width="20" height="20" fill="#000000" />
<rect x="320" y="720" width="20" height="20" fill="#000000" />
<rect x="360" y="720" width="40" height="20" fill="#000000" />
<rect x="460" y="720" width="20" height="20" fill="#000000" />
<rect x="520" y="720" width="60" height="20" fill="#000000" />
<rect x="620" y="720" width="20" height="20" fill="#000000" />
<rect x="660" y="720" width="20" height="20" fill="#000000" />
<rect x="700" y="720" width="20" height="20" fill="#000000" />
</svg>